<svg xmlns="http://www.w3.org/2000/svg" width="1024" height="1024"><path fill="#f86300" d="M480 80q12.491-.034 24.982-.052 5.8-.007 11.599-.023 5.592-.016 11.184-.02 2.139-.003 4.277-.01c1.99-.008 3.98-.008 5.97-.009l3.438-.006C544 80 544 80 545 81c1.693.229 3.395.398 5.098.543 25.82 2.38 51.001 6.852 75.958 14.001 2.098.57 2.098.57 4.944.456v2l1.8.301c6.69 1.216 12.855 3.153 19.2 5.574l3.131 1.188C681.041 115.09 707.015 127.31 730 143q1.872 1.231 3.75 2.457A361 361 0 0 1 757 162l1.65 1.269c21.585 16.604 42.897 34.906 60.584 55.684 2.16 2.504 4.4 4.927 6.641 7.36 4.443 4.883 8.7 9.87 12.81 15.038q1.4 1.755 2.814 3.502c13.681 16.937 25.815 34.96 36.583 53.881 1.749 3.128 1.749 3.128 3.453 5.278 2.079 2.821 3.553 5.914 5.09 9.05l1.045 2.119c1.116 2.27 2.223 4.544 3.33 6.819l1.12 2.283c42.145 86.07 49.416 181.638 16.65 310.394C891.875 683.797 867.73 729.842 836 771l-1.264 1.646c-6.558 8.523-13.391 16.77-20.452 24.88a993 993 0 0 0-3.21 3.708c-3.961 4.577-8.049 9.033-12.168 13.468-2.775 3.002-5.368 6.095-7.906 9.298-2.625 2.813-2.625 2.813-5 5h-2v2c-1.398 1.41-1.398 1.41-3.375 3.063a296 296 0 0 0-9.25 8.187c-5.597 5.043-11.479 9.664-17.445 14.257a755 755 0 0 0-5.903 4.626C731.05 874.45 712.862 885.568 694 896l-2.172 1.217C621.95 936.275 534.096 952.361 455 940l-3.449-.52c-41.464-6.387-107.635-20.762-135.082-56.472-1.945-3.78-2.548-5.473-1.906-9.82 2.15-4.768 2.15-4.768 4.437-6.188 3.355-1.074 5.758-1.48 9.105-.187 3.993 2.148 7.618 4.7 11.27 7.375 32.17 22.76 82.051 39.334 121.672 37.785C463 912 463 912 466 913c1.498.091 3 .128 4.5.13l2.75.009 2.965-.006 3.052.003q3.196 0 6.393-.006 4.891-.005 9.783.007 3.105 0 6.21-.004l2.957.006 2.76-.01 2.423-.002c2.193-.126 4.091-.56 6.207-1.127a84 84 0 0 1 4.484.035c31.449.282 67.443-10.072 96.516-22.035v-2l3.281-.184c5.891-.744 10.91-3.341 16.219-5.879l3.212-1.507c3.103-1.462 6.197-2.942 9.288-4.43l2.446-1.173A333.6 333.6 0 0 0 716 834l2.54-1.96c8.175-6.36 15.83-13.39 23.136-20.727a73 73 0 0 1 5.699-5.125c3.215-2.726 5.92-5.685 8.64-8.899a137 137 0 0 1 4.344-4.766C783.705 768.004 802.357 737.876 811 705l.584-2.215c2.863-11.722 3.507-26.032-2.584-36.785-3.64-5.522-7.586-8.987-14.18-10.5-13.072-2.005-25.094 3.921-35.476 11.418a179 179 0 0 0-4.758 3.904 184 184 0 0 1-4.924 4.013c-8.683 6.842-16.362 14.592-24.146 22.419l-4.41 4.41q-4.592 4.596-9.177 9.201-5.851 5.875-11.717 11.737-4.543 4.544-9.08 9.093l-4.32 4.326a4100 4100 0 0 0-6.041 6.063l-1.77 1.769c-3.65 3.677-7.09 7.484-10.451 11.427-1.98 2.197-4.203 3.929-6.55 5.72a471 471 0 0 0-5 5l-2.368 2.384-2.433 2.452-5.511 5.539c-1.369 1.38-1.369 1.38-2.764 2.79-4.588 4.604-9.215 9.08-14.152 13.31-2.616 2.251-5.123 4.61-7.647 6.962a209 209 0 0 1-13.281 11.301 249 249 0 0 0-6.438 5.305C554.623 856.537 497.636 885.008 434 882c-28.52-2.73-53.036-16.835-72-38-26.895-33.885-33.105-76.741-28.414-118.753 8.37-65.634 43.209-126.123 80.935-179.166q2.066-2.908 4.12-5.823c4.298-6.08 8.69-12.061 13.258-17.943 3.926-5.06 7.765-10.185 11.601-15.315 4.15-5.55 8.316-11.085 12.563-16.562 5.896-7.63 11.583-15.413 17.282-23.19a641 641 0 0 1 4.362-5.85C491.349 443.232 504.31 424.06 515 404l1.146-2.144c9.13-17.376 15.827-37.67 10.729-57.356-4.129-11.157-10.591-19.182-21.375-24.312-17.882-7.891-40.188-5.735-58.5-.188l-2.392.683c-27.456 7.916-53.82 21.87-75.943 39.96a594 594 0 0 1-5.763 4.619l-4.277 3.425-1.984 1.584a123 123 0 0 0-11.018 10.114c-1.695 1.686-3.471 3.214-5.31 4.74-52.724 45.585-77.003 117.069-82.531 184.539-.441 6.108-.659 12.213-.782 18.336l-.066 3.28c-.669 39.793 5.008 77.604 13.587 116.315 3.232 14.643 5.874 28.9 5.791 43.967l-.014 3.27c-.23 15.699-3.865 31.902-14.298 44.168-6.88 6.46-12.927 9.487-22.426 9.246C220.146 806.39 204.9 787.963 193 774c-3.967-4.874-7.738-9.892-11.474-14.943a540 540 0 0 0-4.296-5.698C164.09 735.991 153.065 717.284 143 698l-1.147-2.193A448 448 0 0 1 135 682l-1.048-2.189c-18.236-38.395-30.412-79.941-36.827-121.936l-.579-3.76c-2.75-19.15-3.886-38.315-3.807-57.652.011-3.095 0-6.189-.012-9.283-.013-17.73 1.23-35.287 4.023-52.805l.51-3.232c3.395-20.8 8.032-41.16 14.74-61.143l.995-2.985C130.328 315.602 157.98 267.228 192 225l2.11-2.648c3.956-4.74 7.764-8.743 13.89-10.352 4.476-.397 7.805.52 11.375 3.25 4.692 4.915 5.131 9.613 5.013 16.19-.694 6.37-2.74 12.307-4.747 18.367-1.309 3.96-2.555 7.94-3.801 11.92l-.752 2.396c-2.193 7.06-4.022 14.163-5.65 21.377l-.687 3.028c-6.384 27.969-6.384 27.969.561 54.972 3.858 5.475 8.132 8.762 14.688 10.5 2.668.135 5.216.192 7.875.125l2.086-.027c1.68-.024 3.36-.06 5.039-.098l1-2 3.813-.25c11.328-1.075 20.614-8.87 29.187-15.75l1.925-1.53c7.494-5.97 14.867-12.028 21.93-18.505a270 270 0 0 1 5.957-5.277c4.22-3.672 8.307-7.48 12.408-11.283a415 415 0 0 1 10.702-9.573c2.146-1.892 4.247-3.83 6.345-5.775a297 297 0 0 1 15.76-13.616c3.516-2.887 6.928-5.88 10.348-8.878a306 306 0 0 1 17.152-13.926c2.521-1.9 5.005-3.841 7.477-5.805C453.42 186 453.42 186 472 186l1-2c1.99-.697 3.993-1.355 6-2 2.376-.99 4.725-2.032 7.08-3.072 10.463-4.617 20.969-8.635 31.92-11.928l2.007-.605c39.516-11.7 82.642-7.773 118.993 11.605 23.933 13.779 43.23 36.055 50.786 62.909 5.323 19.885 4.458 40.296-.786 60.091l-.957 3.695c-9.862 33.02-31.032 63.233-52.672 89.63a757 757 0 0 0-3.808 4.702c-4.335 5.366-8.818 10.554-13.458 15.657-4.047 4.452-7.983 8.999-11.89 13.574l-3.09 3.617-1.575 1.844a457 457 0 0 1-9.237 10.469c-3.821 4.212-7.436 8.562-11.012 12.984-2.317 2.847-4.68 5.65-7.051 8.453-5.135 6.15-9.983 12.5-14.824 18.883a834 834 0 0 1-8.715 11.233A527 527 0 0 0 530 524l-2.08 3.038C505.028 560.585 480.454 598.617 476 640l-.402 3.492c-1.87 20.212 2.525 39.808 15.359 55.973 10.953 11.888 26.711 18.384 42.707 19.445L536 719l2.273.121C583.18 720.39 626.756 691.453 659 663l2.23-1.963c6.367-5.66 12.448-11.564 18.457-17.6l2.721-2.708c68.427-68.527 113.297-167.688 120.682-276.104-.195-27.94-4.016-55.164-13.09-81.625l-.87-2.556c-8.168-23.584-20-45.352-36.13-64.444l-1.368-1.637C742.24 203.133 732.535 193.084 721 184l-3.098-2.473C684.427 155.057 645.051 139.475 603 133l-2.582-.398C539.395 123.816 477.02 137.82 422 164l-2.984 1.41c-27.368 13.03-52.37 29.805-76.704 47.778C324.296 226.286 305.177 238.265 282 236c-6.308-1.526-10.81-3.948-15-9l-2.125-2.375c-5.773-8.082-6.927-17.588-5.484-27.238 2.64-12.51 8.933-24.985 17.609-34.387l1.429-1.553c28.33-30.429 68.017-47.993 106.678-61.416 3.37-1.201 6.691-2.43 9.893-4.031a138 138 0 0 1 4.422-.887 196 196 0 0 0 10.969-2.445c11.803-2.992 23.598-5.508 35.609-7.48l3.81-.627c17.038-2.727 17.038-2.727 25.252-2.624l2.848.028L480 82z"/><path fill="#f54407" d="M98 570h1v5h-1z"/><path fill="#fe4909" d="M289 237h5v1h-5z"/><path fill="#fe4808" d="m504 912 4 1Zm-24 0 4 1Z"/><path fill="#fd4908" d="m473 912 3 1Z"/><path fill="#fb4906" d="m413 904 3 1Z"/><path fill="#fe4707" d="m805 662 1 2-2-1z"/><path fill="#fa4707" d="m440 200 3 1Z"/><path fill="#fd4907" d="m601 162 3 1Z"/><path fill="#fb4805" d="m589 160 3 1Z"/><path fill="#f54407" d="m450 940 2 1Z"/><path fill="#fc4907" d="m509 912 2 1Z"/><path fill="#fd4a08" d="m393 898 2 1Z"/><path fill="#fd4a09" d="m594 896 2 1Z"/><path fill="#ff4908" d="m439 883 2 1Z"/><path fill="#fd4a08" d="m488 176 2 1Z"/><path fill="#fe4909" d="m603 134 2 1Z"/><path fill="#ff4807" d="m586 132 2 1Z"/><path fill="#f34406" d="m550 80 2 1Z"/><path fill="#f44508" d="m473 80 2 1Z"/></svg>