<?xml version="1.0" encoding="UTF-8"?>
<svg version="1.1" xmlns="http://www.w3.org/2000/svg" width="1024" height="1024">
<path d="M0 0 C8.32728947 -0.02312684 16.65456563 -0.04091683 24.98187923 -0.05181217 C28.84820118 -0.05704026 32.71450121 -0.06413654 36.58081055 -0.07543945 C40.30903401 -0.086271 44.03723634 -0.0922774 47.76547432 -0.09487724 C49.19089656 -0.09673101 50.61631759 -0.10035071 52.04173088 -0.10573006 C54.03163408 -0.11294393 56.02155834 -0.11340808 58.01147461 -0.11352539 C59.14620712 -0.115746 60.28093964 -0.11796661 61.45005798 -0.12025452 C64 0 64 0 65 1 C66.69347484 1.22857065 68.39501145 1.39770257 70.09765625 1.54296875 C95.91756743 3.92234278 121.09923456 8.39542867 146.0559082 15.54443359 C148.15401998 16.11407665 148.15401998 16.11407665 151 16 C151 16.66 151 17.32 151 18 C151.59425781 18.09941895 152.18851563 18.19883789 152.80078125 18.30126953 C159.49024817 19.51718158 165.65522598 21.454395 172 23.875 C173.54989624 24.4632959 173.54989624 24.4632959 175.13110352 25.06347656 C201.04072973 35.08999357 227.01476449 47.31032331 250 63 C251.24837189 63.82148992 252.49844549 64.6403983 253.75 65.45703125 C261.73180606 70.68090028 269.45171372 76.16057543 277 82 C277.81718506 82.62793457 277.81718506 82.62793457 278.65087891 83.26855469 C300.2346992 99.87338706 321.54708481 118.17485206 339.234375 138.953125 C341.3943342 141.45714849 343.63487993 143.87997698 345.875 146.3125 C350.31783768 151.19561889 354.57584137 156.18366587 358.68505859 161.35058594 C359.61847655 162.52143104 360.55681881 163.68835795 361.49853516 164.85253906 C375.18021601 181.79018691 387.3136995 199.81239402 398.08203125 218.734375 C399.83067698 221.86188813 399.83067698 221.86188813 401.53515625 224.01171875 C403.61398206 226.83337831 405.08835925 229.92608997 406.625 233.0625 C407.14223633 234.11099121 407.14223633 234.11099121 407.66992188 235.18066406 C408.78559048 237.45105969 409.89308967 239.72532324 411 242 C411.36963867 242.7532959 411.73927734 243.5065918 412.12011719 244.28271484 C454.26542323 330.35230635 461.53621539 425.9209912 428.77001953 554.67724609 C411.87510749 603.79775626 387.73036475 649.84210752 356 691 C355.58282715 691.54333984 355.1656543 692.08667969 354.73583984 692.64648438 C348.17846614 701.1693695 341.3446017 709.41563842 334.28369141 717.52539062 C333.21020096 718.75853674 332.14160782 719.99594387 331.07421875 721.234375 C327.11260338 725.81056077 323.02506552 730.26728973 318.90600586 734.70166016 C316.13136228 737.70373354 313.53765052 740.79682492 311 744 C308.375 746.8125 308.375 746.8125 306 749 C305.34 749 304.68 749 304 749 C304 749.66 304 750.32 304 751 C302.6015625 752.41015625 302.6015625 752.41015625 300.625 754.0625 C297.47821792 756.73066312 294.40792312 759.45308248 291.375 762.25 C285.77806383 767.2932058 279.89632111 771.91369169 273.93017578 776.50683594 C271.95268799 778.03660009 269.98953344 779.58348928 268.02734375 781.1328125 C251.04860627 794.44974641 232.86188306 805.56826247 214 816 C212.92468018 816.60255615 212.92468018 816.60255615 211.82763672 817.21728516 C141.94960001 856.27509705 54.09594095 872.36062502 -25 860 C-26.13808105 859.82839355 -27.27616211 859.65678711 -28.44873047 859.47998047 C-69.91305042 853.09339079 -136.08366802 838.71767681 -163.53125 803.0078125 C-165.47581187 799.22846241 -166.07889808 797.53475365 -165.4375 793.1875 C-163.28732394 788.41971831 -163.28732394 788.41971831 -161 787 C-157.64493797 785.92638015 -155.24179323 785.52079222 -151.89453125 786.8125 C-147.90198565 788.96070153 -144.2774023 791.51330631 -140.625 794.1875 C-108.45437301 816.94834176 -58.57403883 833.5224539 -18.953125 831.97265625 C-17 832 -17 832 -14 833 C-12.50224939 833.09142929 -11.00078203 833.12789938 -9.50024414 833.12939453 C-8.59242691 833.13254669 -7.68460968 833.13569885 -6.74928284 833.13894653 C-5.77112106 833.1369223 -4.79295929 833.13489807 -3.78515625 833.1328125 C-2.77786972 833.13376923 -1.77058319 833.13472595 -0.73277283 833.13571167 C1.39812279 833.13639235 3.52902048 833.13454585 5.65991211 833.13037109 C8.92110867 833.12502686 12.18216714 833.13031701 15.44335938 833.13671875 C17.51302114 833.13605784 19.58268281 833.13477641 21.65234375 833.1328125 C22.62848129 833.13483673 23.60461884 833.13686096 24.6103363 833.13894653 C25.97679039 833.13421829 25.97679039 833.13421829 27.37084961 833.12939453 C28.17010361 833.12859894 28.9693576 833.12780334 29.79283142 833.12698364 C31.98641774 833.00078142 33.88397286 832.56726896 36 832 C37.49454184 831.97026548 38.99036683 831.98536638 40.484375 832.03515625 C71.93289941 832.31656197 107.9269515 821.96305671 137 810 C137 809.34 137 808.68 137 808 C138.0828125 807.93941406 139.165625 807.87882813 140.28125 807.81640625 C146.17210162 807.07228505 151.19129786 804.47470397 156.5 801.9375 C157.56009277 801.44016357 158.62018555 800.94282715 159.71240234 800.43041992 C162.81535522 798.96794911 165.90925075 797.48806204 169 796 C169.80727539 795.61295898 170.61455078 795.22591797 171.44628906 794.82714844 C194.44150902 783.74548594 216.12338488 770.02952832 236 754 C236.83789062 753.35289062 237.67578125 752.70578125 238.5390625 752.0390625 C246.71487992 745.6800934 254.36948123 738.65079842 261.67578125 731.3125 C263.51976484 729.47781381 265.35600616 727.8174682 267.375 726.1875 C270.59047272 723.46193836 273.29561486 720.50252581 276.015625 717.2890625 C277.42354477 715.66496607 278.87678391 714.07966722 280.359375 712.5234375 C303.70468683 688.00395318 322.35698061 657.87634257 331 625 C331.28931396 623.90341064 331.28931396 623.90341064 331.58447266 622.78466797 C334.44681455 611.06257505 335.09098269 596.75321636 329 586 C325.35978871 580.47833119 321.41420784 577.01257814 314.8203125 575.5 C301.74788003 573.49528192 289.72648909 579.42102038 279.34375 586.91796875 C277.73600541 588.19246248 276.14839924 589.49291863 274.58551025 590.82203674 C272.96617274 592.18612246 271.32749561 593.52792165 269.66204834 594.83531189 C260.97949033 601.67699074 253.30041491 609.42682272 245.515625 617.25390625 C244.04632577 618.72440072 242.57665323 620.19452226 241.10662842 621.66429138 C238.04437189 624.72810227 234.98547295 627.79521145 231.92919922 630.86499023 C228.02867234 634.78254286 224.12155831 638.69344369 220.2121315 642.60211277 C217.18339128 645.63112593 214.15727177 648.66274592 211.13201141 651.6952343 C209.692613 653.1377941 208.25262647 654.57976734 206.81201935 656.02112007 C204.79566355 658.03966442 202.78264482 660.06147979 200.77050781 662.08422852 C200.18645676 662.66782639 199.6024057 663.25142426 199.00065613 663.85270691 C195.35164029 667.52963973 191.91046816 671.33706295 188.54957199 675.27950954 C186.57022298 677.47718162 184.34737371 679.20858322 182 681 C180.32002604 682.65325226 178.65496904 684.32171724 177 686 C176.21842529 686.78681152 175.43685059 687.57362305 174.6315918 688.38427734 C173.82890869 689.1933252 173.02622559 690.00237305 172.19921875 690.8359375 C170.36205135 692.68236349 168.52480955 694.52871546 166.6875 696.375 C165.31948242 697.75558594 165.31948242 697.75558594 163.92382812 699.1640625 C159.33558187 703.76875409 154.70859757 708.24594917 149.77172852 712.47558594 C147.15573931 714.72641088 144.6493981 717.08442532 142.125 719.4375 C137.83530185 723.3977902 133.44952204 727.14548756 128.84375 730.73828125 C126.66155118 732.47384872 124.52840342 734.23637512 122.40625 736.04296875 C74.62320342 776.53727416 17.63693446 805.0084703 -46 802 C-74.52001502 799.27091812 -99.0363537 785.16478382 -118 764 C-144.895459 730.11526054 -151.10493641 687.25859772 -146.4140625 645.24658203 C-138.0433245 579.6132837 -103.20510326 519.12358229 -65.47851562 466.08105469 C-64.10144134 464.1427817 -62.72962825 462.20091063 -61.359375 460.2578125 C-57.06108467 454.17840713 -52.66946097 448.19669824 -48.10107422 442.31542969 C-44.17468384 437.25448018 -40.33563991 432.1299416 -36.5 427 C-32.34907273 421.44982016 -28.18383738 415.91506535 -23.9375 410.4375 C-18.0410947 402.80743401 -12.35387969 395.02499089 -6.65478516 387.24707031 C-5.21239858 385.28842085 -3.75752121 383.34052549 -2.29296875 381.3984375 C11.34911045 363.23162658 24.30982828 344.06000707 35 324 C35.37833984 323.29262695 35.75667969 322.58525391 36.14648438 321.85644531 C45.2766313 304.48048506 51.97325929 284.18665183 46.875 264.5 C42.74627198 253.34283266 36.28382784 245.31839457 25.5 240.1875 C7.61833831 232.29694748 -14.68786619 234.45270236 -33 240 C-33.78938965 240.2254248 -34.5787793 240.45084961 -35.39208984 240.68310547 C-62.84783561 248.59900164 -89.21182055 262.55220664 -111.33544922 280.64306641 C-113.24367303 282.19864106 -115.17023226 283.7300058 -117.09765625 285.26171875 C-118.52413606 286.40277308 -119.94992534 287.54469125 -121.375 288.6875 C-122.02960205 289.21021484 -122.6842041 289.73292969 -123.35864258 290.27148438 C-127.26611073 293.44010575 -130.87910846 296.76850047 -134.37670898 300.38549805 C-136.07179383 302.07140511 -137.84797452 303.59918022 -139.6875 305.125 C-192.4112817 350.71016523 -216.68958796 422.19396488 -222.21826172 489.66357422 C-222.65901904 495.77221355 -222.87666349 501.87737007 -223 508 C-223.03287109 509.62349365 -223.03287109 509.62349365 -223.06640625 511.27978516 C-223.73454079 551.0727648 -218.05784687 588.88386583 -209.47851562 627.5949707 C-206.24707714 642.2379304 -203.60468995 656.49467171 -203.6875 671.5625 C-203.69487183 673.18128052 -203.69487183 673.18128052 -203.70239258 674.83276367 C-203.93267619 690.53102046 -207.56658454 706.73368723 -218 719 C-224.88036329 725.45962165 -230.92659743 728.48747809 -240.42578125 728.24609375 C-259.85413057 726.38875535 -275.10052554 707.96312999 -287 694 C-290.96681236 689.12628784 -294.73817128 684.10838944 -298.47412109 679.05664062 C-299.89157759 677.14613606 -301.32696967 675.25095269 -302.76953125 673.359375 C-315.90955346 655.99106852 -326.93542403 637.28441249 -337 618 C-337.37850098 617.27619141 -337.75700195 616.55238281 -338.14697266 615.80664062 C-340.51656858 611.24426801 -342.78868329 606.64099402 -345 602 C-345.34595215 601.2776416 -345.6919043 600.5552832 -346.04833984 599.81103516 C-364.28444392 561.41622294 -376.45953972 519.86955205 -382.875 477.875 C-383.06602295 476.63419678 -383.2570459 475.39339355 -383.45385742 474.11499023 C-386.2045691 454.96479749 -387.34034343 435.79986976 -387.26074219 416.46289062 C-387.24997666 413.36829166 -387.26075079 410.27426972 -387.2734375 407.1796875 C-387.28640659 389.45040953 -386.04379559 371.89321584 -383.25 354.375 C-382.99730347 352.77531372 -382.99730347 352.77531372 -382.73950195 351.14331055 C-379.34471601 330.34363094 -374.70769498 309.98376606 -368 290 C-367.67161133 289.01499512 -367.34322266 288.02999023 -367.00488281 287.01513672 C-349.6724116 235.60205615 -322.01997749 187.22759443 -288 145 C-287.30390625 144.12601563 -286.6078125 143.25203125 -285.890625 142.3515625 C-281.9335621 137.6122895 -278.12556967 133.60885585 -272 132 C-267.52406496 131.60307746 -264.19459868 132.52081655 -260.625 135.25 C-255.93329323 140.16512138 -255.49380575 144.86273469 -255.61230469 151.44042969 C-256.305961 157.80913814 -258.35252074 163.74655332 -260.35940552 169.80737305 C-261.66754449 173.76740439 -262.91430901 177.7465716 -264.16015625 181.7265625 C-264.40839645 182.51730164 -264.65663666 183.30804077 -264.91239929 184.1227417 C-267.10541701 191.18326029 -268.93426194 198.28616479 -270.5625 205.5 C-270.7888916 206.49918457 -271.0152832 207.49836914 -271.24853516 208.52783203 C-277.63258333 236.49666509 -277.63258333 236.49666509 -270.6875 263.5 C-266.82966215 268.97489563 -262.55640533 272.26197066 -256 274 C-253.33212358 274.13474123 -250.78353559 274.19197861 -248.125 274.125 C-247.09246094 274.11146484 -247.09246094 274.11146484 -246.0390625 274.09765625 C-244.35922162 274.07432513 -242.67956254 274.03846326 -241 274 C-240.67 273.34 -240.34 272.68 -240 272 C-238.741875 271.9175 -237.48375 271.835 -236.1875 271.75 C-224.8593638 270.67454403 -215.57276159 262.87940702 -207 256 C-206.36481445 255.49484863 -205.72962891 254.98969727 -205.07519531 254.46923828 C-197.58094301 248.50079418 -190.207845 242.44247643 -183.14453125 235.96484375 C-181.18621872 234.17061569 -179.19773863 232.42304764 -177.1875 230.6875 C-172.96856509 227.01625644 -168.88059888 223.20756274 -164.78027344 219.40527344 C-161.26478824 216.15095023 -157.7042565 212.96299773 -154.078125 209.83203125 C-151.93195196 207.94001028 -149.83123919 206.00268699 -147.73339844 204.05737305 C-142.62260406 199.32189759 -137.40454276 194.81036245 -131.97265625 190.44140625 C-128.45731552 187.55429987 -125.04463543 184.56162442 -121.625 181.5625 C-116.05743179 176.70067002 -110.37600641 172.08632475 -104.47265625 167.63671875 C-101.95202465 165.7362136 -99.46771797 163.79584371 -96.99609375 161.83203125 C-26.57897611 106 -26.57897611 106 -8 106 C-7.67 105.34 -7.34 104.68 -7 104 C-5.01036952 103.30299569 -3.00696042 102.64541018 -1 102 C1.37554037 101.01001333 3.72536189 99.96805791 6.07958984 98.9284668 C16.54251326 94.31112072 27.04855039 90.29264317 38 87 C38.66225586 86.80035645 39.32451172 86.60071289 40.00683594 86.39501953 C79.52273046 74.69428615 122.64893228 78.62194345 159 98 C182.93334182 111.77893117 202.22960784 134.05487085 209.78613281 160.90869141 C215.10926042 180.79388144 214.24392086 201.20541983 209 221 C208.52626953 222.82917969 208.52626953 222.82917969 208.04296875 224.6953125 C198.18122905 257.71551958 177.0105865 287.92775128 155.37109375 314.32470703 C154.09353288 315.88571534 152.82754434 317.4561749 151.5625 319.02734375 C147.22822649 324.39251218 142.74518291 329.58070675 138.10546875 334.68359375 C134.05840105 339.13611907 130.12236229 343.68271055 126.21484375 348.2578125 C125.18492521 349.46356676 124.15497647 350.66929523 123.125 351.875 C122.34552002 352.7877771 122.34552002 352.7877771 121.55029297 353.71899414 C118.52107467 357.25623858 115.44851417 360.74392577 112.3125 364.1875 C108.49153046 368.40018764 104.87655182 372.750024 101.30078125 377.171875 C98.98418987 380.01943385 96.62026355 382.82203891 94.25 385.625 C89.11456537 391.77484147 84.26678587 398.12510913 79.42578125 404.5078125 C76.55872689 408.28280856 73.64185325 412.0159409 70.7109375 415.74145508 C63.48176774 424.94809735 56.60191195 434.33449179 50 444 C49.31357422 445.00240723 48.62714844 446.00481445 47.91992188 447.03759766 C25.02771401 480.58532279 0.45402805 518.61700522 -4 560 C-4.13277344 561.15242187 -4.26554687 562.30484375 -4.40234375 563.4921875 C-6.27227607 583.70426493 -1.87749917 603.29999606 10.95703125 619.46484375 C21.91032137 631.35292301 37.66815201 637.84893889 53.6640625 638.91015625 C54.43492187 638.93980469 55.20578125 638.96945312 56 639 C56.75023437 639.03996094 57.50046875 639.07992187 58.2734375 639.12109375 C103.18034508 640.38922901 146.75588362 611.45334552 179 583 C179.73613525 582.35216553 180.47227051 581.70433105 181.23071289 581.03686523 C187.5969361 575.37640122 193.67785359 569.47337033 199.6875 563.4375 C200.58533203 562.54353516 201.48316406 561.64957031 202.40820312 560.72851562 C270.83450375 492.20195669 315.70537786 393.04120531 323.08984375 284.625 C322.89508716 256.68571625 319.07390138 229.4611443 310 203 C309.71286133 202.15663086 309.42572266 201.31326172 309.12988281 200.44433594 C300.96239249 176.86015577 289.13021175 155.09173013 273 136 C272.54866699 135.45988281 272.09733398 134.91976562 271.63232422 134.36328125 C262.23934082 123.1326076 252.53518645 113.08415081 241 104 C239.97777344 103.18402344 238.95554687 102.36804688 237.90234375 101.52734375 C204.42680782 75.05771897 165.05090868 59.4752305 123 53 C122.14792969 52.86867676 121.29585937 52.73735352 120.41796875 52.60205078 C59.39536008 43.81587954 -2.98025016 57.82020665 -58 84 C-59.47702393 84.69826904 -59.47702393 84.69826904 -60.98388672 85.41064453 C-88.35183129 98.43969306 -113.35465381 115.21478101 -137.6875 133.1875 C-155.70469049 146.28597031 -174.82351889 158.26480271 -198 156 C-204.30775447 154.47432727 -208.81045022 152.05210415 -213 147 C-213.70125 146.21625 -214.4025 145.4325 -215.125 144.625 C-220.89790885 136.54292761 -222.05187665 127.0370548 -220.609375 117.38671875 C-217.9685564 104.87668704 -211.6764596 92.40212713 -203 83 C-202.52852539 82.48759766 -202.05705078 81.97519531 -201.57128906 81.44726562 C-173.24138783 51.01821066 -133.5540227 33.45388872 -94.89306641 20.03051758 C-91.52275872 18.83000545 -88.20182593 17.60091296 -85 16 C-83.53166485 15.67765173 -82.05633889 15.3867775 -80.578125 15.11328125 C-76.8902979 14.39855026 -73.25024354 13.59260257 -69.609375 12.66796875 C-57.80553072 9.67562963 -46.01118139 7.15993715 -34 5.1875 C-32.7428418 4.98084717 -31.48568359 4.77419434 -30.19042969 4.5612793 C-13.15196339 1.83351945 -13.15196339 1.83351945 -4.9375 1.9375 C-3.99777344 1.94652344 -3.05804688 1.95554687 -2.08984375 1.96484375 C-1.40019531 1.97644531 -0.71054687 1.98804687 0 2 C0 1.34 0 0.68 0 0 Z " fill="#F86300" transform="translate(480,80)"/>
<path d="M0 0 C0.33 0 0.66 0 1 0 C1 1.65 1 3.3 1 5 C0.67 5 0.34 5 0 5 C0 3.35 0 1.7 0 0 Z " fill="#F54407" transform="translate(98,570)"/>
<path d="M0 0 C1.65 0 3.3 0 5 0 C5 0.33 5 0.66 5 1 C3.35 1 1.7 1 0 1 C0 0.67 0 0.34 0 0 Z " fill="#FE4909" transform="translate(289,237)"/>
<path d="M0 0 C4 1 4 1 4 1 Z " fill="#FE4808" transform="translate(504,912)"/>
<path d="M0 0 C4 1 4 1 4 1 Z " fill="#FE4808" transform="translate(480,912)"/>
<path d="M0 0 C3 1 3 1 3 1 Z " fill="#FD4908" transform="translate(473,912)"/>
<path d="M0 0 C3 1 3 1 3 1 Z " fill="#FB4906" transform="translate(413,904)"/>
<path d="M0 0 C0.33 0.66 0.66 1.32 1 2 C0.34 1.67 -0.32 1.34 -1 1 C-0.67 0.67 -0.34 0.34 0 0 Z " fill="#FE4707" transform="translate(805,662)"/>
<path d="" fill="#FC4708" transform="translate(0,0)"/>
<path d="" fill="#FB4707" transform="translate(0,0)"/>
<path d="M0 0 C3 1 3 1 3 1 Z " fill="#FA4707" transform="translate(440,200)"/>
<path d="M0 0 C3 1 3 1 3 1 Z " fill="#FD4907" transform="translate(601,162)"/>
<path d="M0 0 C3 1 3 1 3 1 Z " fill="#FB4805" transform="translate(589,160)"/>
<path d="M0 0 C2 1 2 1 2 1 Z " fill="#F54407" transform="translate(450,940)"/>
<path d="M0 0 C2 1 2 1 2 1 Z " fill="#FC4907" transform="translate(509,912)"/>
<path d="M0 0 C2 1 2 1 2 1 Z " fill="#FD4A08" transform="translate(393,898)"/>
<path d="M0 0 C2 1 2 1 2 1 Z " fill="#FD4A09" transform="translate(594,896)"/>
<path d="M0 0 C2 1 2 1 2 1 Z " fill="#FF4908" transform="translate(439,883)"/>
<path d="" fill="#FF4809" transform="translate(0,0)"/>
<path d="" fill="#F34407" transform="translate(0,0)"/>
<path d="" fill="#FC4709" transform="translate(0,0)"/>
<path d="" fill="#F64407" transform="translate(0,0)"/>
<path d="" fill="#F84708" transform="translate(0,0)"/>
<path d="" fill="#F44409" transform="translate(0,0)"/>
<path d="" fill="#F64508" transform="translate(0,0)"/>
<path d="" fill="#FD4708" transform="translate(0,0)"/>
<path d="" fill="#FD4809" transform="translate(0,0)"/>
<path d="M0 0 C2 1 2 1 2 1 Z " fill="#FD4A08" transform="translate(488,176)"/>
<path d="" fill="#FE4908" transform="translate(0,0)"/>
<path d="M0 0 C2 1 2 1 2 1 Z " fill="#FE4909" transform="translate(603,134)"/>
<path d="M0 0 C2 1 2 1 2 1 Z " fill="#FF4807" transform="translate(586,132)"/>
<path d="M0 0 C2 1 2 1 2 1 Z " fill="#F34406" transform="translate(550,80)"/>
<path d="M0 0 C2 1 2 1 2 1 Z " fill="#F44508" transform="translate(473,80)"/>
<path d="" fill="#F54207" transform="translate(0,0)"/>
<path d="" fill="#F34409" transform="translate(0,0)"/>
<path d="" fill="#F64209" transform="translate(0,0)"/>
<path d="" fill="#F44609" transform="translate(0,0)"/>
<path d="" fill="#F44507" transform="translate(0,0)"/>
<path d="" fill="#F24407" transform="translate(0,0)"/>
<path d="" fill="#F54408" transform="translate(0,0)"/>
<path d="" fill="#F44509" transform="translate(0,0)"/>
<path d="" fill="#F34508" transform="translate(0,0)"/>
<path d="" fill="#8E2B03" transform="translate(0,0)"/>
<path d="" fill="#F14307" transform="translate(0,0)"/>
<path d="" fill="#F24409" transform="translate(0,0)"/>
<path d="" fill="#F14508" transform="translate(0,0)"/>
<path d="" fill="#FF4906" transform="translate(0,0)"/>
<path d="" fill="#FC4707" transform="translate(0,0)"/>
<path d="" fill="#FB4906" transform="translate(0,0)"/>
<path d="" fill="#FA4807" transform="translate(0,0)"/>
<path d="" fill="#F04406" transform="translate(0,0)"/>
<path d="" fill="#FF4B0A" transform="translate(0,0)"/>
<path d="" fill="#F44505" transform="translate(0,0)"/>
<path d="" fill="#FC4A09" transform="translate(0,0)"/>
<path d="" fill="#FE4808" transform="translate(0,0)"/>
<path d="" fill="#FE4A09" transform="translate(0,0)"/>
<path d="" fill="#FE4A08" transform="translate(0,0)"/>
<path d="" fill="#FD4808" transform="translate(0,0)"/>
<path d="" fill="#FF4809" transform="translate(0,0)"/>
<path d="" fill="#FD4809" transform="translate(0,0)"/>
<path d="" fill="#FF4A09" transform="translate(0,0)"/>
<path d="" fill="#FF490A" transform="translate(0,0)"/>
<path d="" fill="#FF4A09" transform="translate(0,0)"/>
<path d="" fill="#EC4307" transform="translate(0,0)"/>
<path d="" fill="#F04206" transform="translate(0,0)"/>
<path d="" fill="#F14508" transform="translate(0,0)"/>
<path d="" fill="#FD4A09" transform="translate(0,0)"/>
<path d="" fill="#FD4708" transform="translate(0,0)"/>
<path d="" fill="#FC4808" transform="translate(0,0)"/>
<path d="" fill="#FC4904" transform="translate(0,0)"/>
<path d="" fill="#FE4C08" transform="translate(0,0)"/>
<path d="" fill="#FC4709" transform="translate(0,0)"/>
<path d="" fill="#FF4807" transform="translate(0,0)"/>
<path d="" fill="#F14304" transform="translate(0,0)"/>
<path d="" fill="#FE4B07" transform="translate(0,0)"/>
<path d="" fill="#FE4806" transform="translate(0,0)"/>
<path d="" fill="#EE4607" transform="translate(0,0)"/>
<path d="" fill="#FC4809" transform="translate(0,0)"/>
<path d="" fill="#FB4607" transform="translate(0,0)"/>
<path d="" fill="#FD4808" transform="translate(0,0)"/>
<path d="" fill="#FD4807" transform="translate(0,0)"/>
<path d="" fill="#FF4A08" transform="translate(0,0)"/>
<path d="" fill="#F13F06" transform="translate(0,0)"/>
<path d="" fill="#FF4909" transform="translate(0,0)"/>
<path d="" fill="#FF4A0A" transform="translate(0,0)"/>
<path d="" fill="#FD470A" transform="translate(0,0)"/>
<path d="" fill="#FC4907" transform="translate(0,0)"/>
<path d="" fill="#F14407" transform="translate(0,0)"/>
<path d="" fill="#FE4909" transform="translate(0,0)"/>
<path d="" fill="#FE4907" transform="translate(0,0)"/>
<path d="" fill="#FE4908" transform="translate(0,0)"/>
<path d="" fill="#F34105" transform="translate(0,0)"/>
<path d="" fill="#F04607" transform="translate(0,0)"/>
<path d="" fill="#F34306" transform="translate(0,0)"/>
<path d="" fill="#FE490B" transform="translate(0,0)"/>
<path d="" fill="#FB490A" transform="translate(0,0)"/>
<path d="" fill="#FC4808" transform="translate(0,0)"/>
<path d="" fill="#FD4809" transform="translate(0,0)"/>
<path d="" fill="#FB4708" transform="translate(0,0)"/>
<path d="" fill="#F84809" transform="translate(0,0)"/>
<path d="" fill="#EE4409" transform="translate(0,0)"/>
<path d="" fill="#F24608" transform="translate(0,0)"/>
<path d="" fill="#F44407" transform="translate(0,0)"/>
<path d="" fill="#FD4808" transform="translate(0,0)"/>
<path d="" fill="#FF4907" transform="translate(0,0)"/>
<path d="" fill="#F14307" transform="translate(0,0)"/>
<path d="" fill="#F9470B" transform="translate(0,0)"/>
<path d="" fill="#FE4708" transform="translate(0,0)"/>
<path d="" fill="#F34608" transform="translate(0,0)"/>
<path d="" fill="#FA470A" transform="translate(0,0)"/>
<path d="" fill="#FB4708" transform="translate(0,0)"/>
<path d="" fill="#EE470C" transform="translate(0,0)"/>
<path d="" fill="#FA4808" transform="translate(0,0)"/>
<path d="" fill="#F34408" transform="translate(0,0)"/>
<path d="" fill="#FF4809" transform="translate(0,0)"/>
<path d="" fill="#F74508" transform="translate(0,0)"/>
<path d="" fill="#FF4B09" transform="translate(0,0)"/>
<path d="" fill="#FF4907" transform="translate(0,0)"/>
<path d="" fill="#F74808" transform="translate(0,0)"/>
<path d="" fill="#F94306" transform="translate(0,0)"/>
<path d="" fill="#F34709" transform="translate(0,0)"/>
<path d="" fill="#F84708" transform="translate(0,0)"/>
<path d="" fill="#FD4B09" transform="translate(0,0)"/>
<path d="" fill="#FA460A" transform="translate(0,0)"/>
<path d="" fill="#F94706" transform="translate(0,0)"/>
<path d="" fill="#FC4A0A" transform="translate(0,0)"/>
<path d="" fill="#FD490B" transform="translate(0,0)"/>
<path d="" fill="#F54706" transform="translate(0,0)"/>
<path d="" fill="#F94806" transform="translate(0,0)"/>
<path d="" fill="#F64407" transform="translate(0,0)"/>
<path d="" fill="#F74405" transform="translate(0,0)"/>
<path d="" fill="#F94808" transform="translate(0,0)"/>
<path d="" fill="#F8470A" transform="translate(0,0)"/>
<path d="" fill="#F44409" transform="translate(0,0)"/>
<path d="" fill="#F84A08" transform="translate(0,0)"/>
<path d="" fill="#FA4809" transform="translate(0,0)"/>
<path d="" fill="#F54808" transform="translate(0,0)"/>
<path d="" fill="#F94709" transform="translate(0,0)"/>
<path d="" fill="#F74708" transform="translate(0,0)"/>
<path d="" fill="#F44708" transform="translate(0,0)"/>
<path d="" fill="#F84509" transform="translate(0,0)"/>
<path d="" fill="#F6470A" transform="translate(0,0)"/>
<path d="" fill="#EE4A0D" transform="translate(0,0)"/>
<path d="" fill="#FC4908" transform="translate(0,0)"/>
<path d="" fill="#F84608" transform="translate(0,0)"/>
<path d="" fill="#F84807" transform="translate(0,0)"/>
<path d="" fill="#F9470B" transform="translate(0,0)"/>
<path d="" fill="#FB4906" transform="translate(0,0)"/>
<path d="" fill="#F94807" transform="translate(0,0)"/>
<path d="" fill="#F54508" transform="translate(0,0)"/>
<path d="" fill="#FB4807" transform="translate(0,0)"/>
<path d="" fill="#EE440B" transform="translate(0,0)"/>
<path d="" fill="#F24509" transform="translate(0,0)"/>
<path d="" fill="#FC4808" transform="translate(0,0)"/>
<path d="" fill="#F54404" transform="translate(0,0)"/>
<path d="" fill="#F84505" transform="translate(0,0)"/>
<path d="" fill="#FA4506" transform="translate(0,0)"/>
<path d="" fill="#FD480A" transform="translate(0,0)"/>
<path d="" fill="#FC4708" transform="translate(0,0)"/>
<path d="" fill="#FA4809" transform="translate(0,0)"/>
<path d="" fill="#FA4707" transform="translate(0,0)"/>
<path d="" fill="#EE4509" transform="translate(0,0)"/>
<path d="" fill="#FE4909" transform="translate(0,0)"/>
<path d="" fill="#F64508" transform="translate(0,0)"/>
<path d="" fill="#FF4809" transform="translate(0,0)"/>
<path d="" fill="#FA4708" transform="translate(0,0)"/>
<path d="" fill="#FF4609" transform="translate(0,0)"/>
<path d="" fill="#FE4809" transform="translate(0,0)"/>
<path d="" fill="#FC4A09" transform="translate(0,0)"/>
<path d="" fill="#FA4708" transform="translate(0,0)"/>
<path d="" fill="#FD4708" transform="translate(0,0)"/>
<path d="" fill="#F14608" transform="translate(0,0)"/>
<path d="" fill="#F14709" transform="translate(0,0)"/>
<path d="" fill="#FE4908" transform="translate(0,0)"/>
<path d="" fill="#FC490A" transform="translate(0,0)"/>
<path d="" fill="#ED4306" transform="translate(0,0)"/>
<path d="" fill="#FE490A" transform="translate(0,0)"/>
<path d="" fill="#FF4807" transform="translate(0,0)"/>
<path d="" fill="#FA490A" transform="translate(0,0)"/>
<path d="" fill="#FE4807" transform="translate(0,0)"/>
<path d="" fill="#EE4306" transform="translate(0,0)"/>
<path d="" fill="#FC4806" transform="translate(0,0)"/>
<path d="" fill="#FD4906" transform="translate(0,0)"/>
<path d="" fill="#FD4806" transform="translate(0,0)"/>
<path d="" fill="#FC4808" transform="translate(0,0)"/>
<path d="" fill="#FD4909" transform="translate(0,0)"/>
<path d="" fill="#FB4906" transform="translate(0,0)"/>
<path d="" fill="#F24607" transform="translate(0,0)"/>
<path d="" fill="#FB4809" transform="translate(0,0)"/>
<path d="" fill="#FC4709" transform="translate(0,0)"/>
<path d="" fill="#FF4D06" transform="translate(0,0)"/>
<path d="" fill="#FC4A0B" transform="translate(0,0)"/>
<path d="" fill="#FC4807" transform="translate(0,0)"/>
<path d="" fill="#F34508" transform="translate(0,0)"/>
<path d="" fill="#EB4307" transform="translate(0,0)"/>
<path d="" fill="#FC4806" transform="translate(0,0)"/>
<path d="" fill="#EC4308" transform="translate(0,0)"/>
<path d="" fill="#FD4708" transform="translate(0,0)"/>
<path d="" fill="#FE4808" transform="translate(0,0)"/>
<path d="" fill="#F14707" transform="translate(0,0)"/>
<path d="" fill="#FC4809" transform="translate(0,0)"/>
<path d="" fill="#F04607" transform="translate(0,0)"/>
<path d="" fill="#EE4506" transform="translate(0,0)"/>
<path d="" fill="#FD4505" transform="translate(0,0)"/>
<path d="" fill="#FA4909" transform="translate(0,0)"/>
<path d="" fill="#FD4B06" transform="translate(0,0)"/>
<path d="" fill="#F9480A" transform="translate(0,0)"/>
<path d="" fill="#FD4A08" transform="translate(0,0)"/>
<path d="" fill="#FD460A" transform="translate(0,0)"/>
<path d="" fill="#FC4707" transform="translate(0,0)"/>
<path d="" fill="#F44A08" transform="translate(0,0)"/>
<path d="" fill="#FB4809" transform="translate(0,0)"/>
<path d="" fill="#F44608" transform="translate(0,0)"/>
<path d="" fill="#FE4807" transform="translate(0,0)"/>
<path d="" fill="#F64807" transform="translate(0,0)"/>
<path d="" fill="#FD4908" transform="translate(0,0)"/>
<path d="" fill="#FD4705" transform="translate(0,0)"/>
<path d="" fill="#F14609" transform="translate(0,0)"/>
<path d="" fill="#FC4807" transform="translate(0,0)"/>
<path d="" fill="#FD4707" transform="translate(0,0)"/>
<path d="" fill="#FF4A09" transform="translate(0,0)"/>
<path d="" fill="#FD4606" transform="translate(0,0)"/>
<path d="" fill="#FC4707" transform="translate(0,0)"/>
<path d="" fill="#FF4809" transform="translate(0,0)"/>
<path d="" fill="#FE4909" transform="translate(0,0)"/>
<path d="" fill="#FE4A08" transform="translate(0,0)"/>
<path d="" fill="#FC4A0A" transform="translate(0,0)"/>
<path d="" fill="#F14405" transform="translate(0,0)"/>
<path d="" fill="#FD4707" transform="translate(0,0)"/>
<path d="" fill="#F44106" transform="translate(0,0)"/>
<path d="" fill="#EF460A" transform="translate(0,0)"/>
<path d="" fill="#F04506" transform="translate(0,0)"/>
<path d="" fill="#EF4406" transform="translate(0,0)"/>
<path d="" fill="#ED4607" transform="translate(0,0)"/>
<path d="" fill="#F04408" transform="translate(0,0)"/>
<path d="" fill="#F24508" transform="translate(0,0)"/>
<path d="" fill="#F64505" transform="translate(0,0)"/>
<path d="" fill="#F64706" transform="translate(0,0)"/>
</svg>
